<!-- icon666.com - MILLIONS vector ICONS FREE --><svg version="1.1" id="Layer_1" xmlns="http://www.w3.org/2000/svg" xmlns:xlink="http://www.w3.org/1999/xlink" x="0px" y="0px" viewBox="0 0 512 512" style="enable-background:new 0 0 512 512;" xml:space="preserve"><path style="fill:#FFB054;" d="M460.459,435.354H51.541c-9.425,0-17.067-7.641-17.067-17.067v-64.375 c0-9.425,7.641-17.067,17.067-17.067h408.917c9.425,0,17.067,7.641,17.067,17.067v64.375 C477.525,427.713,469.884,435.354,460.459,435.354z"></path><path style="fill:#FF953B;" d="M460.459,336.845H256v98.509h204.459c9.425,0,17.067-7.641,17.067-17.067v-64.375 C477.525,344.486,469.884,336.845,460.459,336.845z"></path><path style="fill:#FFC769;" d="M477.525,370.979H34.475v-86.983c0-9.417,7.707-17.036,17.124-17.067 c22.905-0.074,22.933-34.731,0-34.805c-9.417-0.031-17.124-7.649-17.124-17.067V94.137c0-16.006,18.588-23.026,29.134-12.479 l88.282,88.281l92.294-88.53c6.604-6.333,17.027-6.333,23.629,0l92.293,88.53l87.947-87.945 c11.324-11.323,29.471-3.249,29.471,11.732v121.333c0,9.417-7.707,17.036-17.125,17.067c-22.908,0.075-22.931,34.728,0,34.805 c9.417,0.031,17.125,7.649,17.125,17.067V370.979z"></path><path style="fill:#FFB054;" d="M460.401,232.124c9.417-0.031,17.125-7.649,17.125-17.067V93.726 c0-14.981-18.146-23.056-29.471-11.732l-87.947,87.946l-92.293-88.53c-3.301-3.166-7.558-4.75-11.815-4.75v294.32h221.525v-86.983 c0-9.417-7.707-17.036-17.125-17.067C437.47,266.852,437.493,232.2,460.401,232.124z"></path><g><path style="fill:#F2484B;" d="M256,301.063c-28.419,0-51.539-23.12-51.539-51.539s23.121-51.54,51.539-51.54 s51.539,23.121,51.539,51.54S284.419,301.063,256,301.063z"></path><path style="fill:#F2484B;" d="M51.537,301.063C23.12,301.063,0,277.944,0,249.525s23.12-51.537,51.537-51.537 s51.537,23.119,51.537,51.537S79.955,301.063,51.537,301.063z"></path></g><g><path style="fill:#BD1515;" d="M256,197.984v103.079c28.419,0,51.539-23.12,51.539-51.539S284.419,197.984,256,197.984z"></path><path style="fill:#BD1515;" d="M460.463,301.063c-28.418,0-51.538-23.12-51.538-51.538s23.12-51.537,51.538-51.537 c28.418,0,51.537,23.12,51.537,51.537S488.882,301.063,460.463,301.063z"></path></g></svg>